<mxfile host="app.diagrams.net" modified="2024-03-30T05:54:37.496Z" agent="Mozilla/5.0 (Windows NT 10.0; Win64; x64) AppleWebKit/537.36 (KHTML, like Gecko) Chrome/123.0.0.0 Safari/537.36" etag="ayct3RgbgfvqaFAIBQqF" version="24.2.1" type="github">
  <diagram name="Page-1" id="haOZvg4d8h4sqzNdu954">
    <mxGraphModel dx="-564" dy="143" grid="0" gridSize="10" guides="1" tooltips="1" connect="1" arrows="1" fold="1" page="0" pageScale="1" pageWidth="850" pageHeight="1100" math="0" shadow="0">
      <root>
        <mxCell id="0" />
        <mxCell id="1" parent="0" />
        <mxCell id="C-qCxtMn5BfufGwFR7-I-56" value="" style="rounded=1;whiteSpace=wrap;html=1;fillColor=#76608a;strokeColor=#432D57;fontColor=#ffffff;" parent="1" vertex="1">
          <mxGeometry x="2040" y="918" width="189" height="130" as="geometry" />
        </mxCell>
        <mxCell id="-nfZVGSjKv8OnjrxLVHm-86" value="" style="rounded=1;whiteSpace=wrap;html=1;fillColor=#647687;fontColor=#ffffff;strokeColor=#314354;fontSize=12;labelBorderColor=none;perimeterSpacing=0;" parent="1" vertex="1">
          <mxGeometry x="1760" y="713" width="750" height="525" as="geometry" />
        </mxCell>
        <mxCell id="C-qCxtMn5BfufGwFR7-I-8" value="" style="rounded=1;whiteSpace=wrap;html=1;fillColor=#76608a;strokeColor=#432D57;fontColor=#ffffff;" parent="1" vertex="1">
          <mxGeometry x="1808.5" y="1059" width="652" height="160" as="geometry" />
        </mxCell>
        <mxCell id="C-qCxtMn5BfufGwFR7-I-10" value="&lt;b&gt;Repository&lt;/b&gt;" style="whiteSpace=wrap;html=1;aspect=fixed;fillColor=#a20025;strokeColor=#6F0000;fontColor=#ffffff;strokeWidth=4;" parent="1" vertex="1">
          <mxGeometry x="2366.5" y="941" width="80" height="80" as="geometry" />
        </mxCell>
        <mxCell id="C-qCxtMn5BfufGwFR7-I-11" style="edgeStyle=orthogonalEdgeStyle;rounded=0;orthogonalLoop=1;jettySize=auto;html=1;exitX=1;exitY=0.5;exitDx=0;exitDy=0;entryX=0;entryY=0.5;entryDx=0;entryDy=0;fillColor=#a20025;strokeColor=#6F0000;strokeWidth=3;" parent="1" source="C-qCxtMn5BfufGwFR7-I-12" target="C-qCxtMn5BfufGwFR7-I-28" edge="1">
          <mxGeometry relative="1" as="geometry" />
        </mxCell>
        <mxCell id="C-qCxtMn5BfufGwFR7-I-12" value="&lt;b&gt;App&lt;/b&gt;" style="whiteSpace=wrap;html=1;aspect=fixed;fillColor=#a20025;strokeColor=#6F0000;fontColor=#ffffff;strokeWidth=4;" parent="1" vertex="1">
          <mxGeometry x="1822.5" y="945" width="80" height="80" as="geometry" />
        </mxCell>
        <mxCell id="C-qCxtMn5BfufGwFR7-I-13" value="&lt;b&gt;Services&lt;/b&gt;" style="rounded=1;whiteSpace=wrap;html=1;fillColor=#a20025;fontColor=#ffffff;strokeColor=#6F0000;strokeWidth=3;" parent="1" vertex="1">
          <mxGeometry x="2106.5" y="1076" width="57" height="33" as="geometry" />
        </mxCell>
        <mxCell id="C-qCxtMn5BfufGwFR7-I-14" value="&lt;b&gt;Telegram bot&lt;/b&gt;" style="rounded=1;whiteSpace=wrap;html=1;fillColor=#a20025;fontColor=#ffffff;strokeColor=#6F0000;strokeWidth=3;" parent="1" vertex="1">
          <mxGeometry x="2089" y="737" width="92" height="33" as="geometry" />
        </mxCell>
        <mxCell id="C-qCxtMn5BfufGwFR7-I-15" value="&lt;b&gt;Income Service&lt;/b&gt;" style="whiteSpace=wrap;html=1;aspect=fixed;fillColor=#a20025;strokeColor=#6F0000;fontColor=#ffffff;strokeWidth=4;" parent="1" vertex="1">
          <mxGeometry x="1850" y="1128" width="65" height="65" as="geometry" />
        </mxCell>
        <mxCell id="C-qCxtMn5BfufGwFR7-I-16" value="&lt;b&gt;Expense Service&lt;/b&gt;" style="whiteSpace=wrap;html=1;aspect=fixed;fillColor=#a20025;strokeColor=#6F0000;fontColor=#ffffff;strokeWidth=4;" parent="1" vertex="1">
          <mxGeometry x="1952" y="1128" width="65" height="65" as="geometry" />
        </mxCell>
        <mxCell id="C-qCxtMn5BfufGwFR7-I-17" value="&lt;b style=&quot;border-color: var(--border-color);&quot;&gt;Category Service&lt;/b&gt;" style="whiteSpace=wrap;html=1;aspect=fixed;fillColor=#a20025;strokeColor=#6F0000;fontColor=#ffffff;strokeWidth=4;" parent="1" vertex="1">
          <mxGeometry x="2054" y="1128" width="65" height="65" as="geometry" />
        </mxCell>
        <mxCell id="C-qCxtMn5BfufGwFR7-I-18" value="&lt;b style=&quot;border-color: var(--border-color);&quot;&gt;Personal Report Service&lt;/b&gt;" style="whiteSpace=wrap;html=1;aspect=fixed;fillColor=#a20025;strokeColor=#6F0000;fontColor=#ffffff;strokeWidth=4;" parent="1" vertex="1">
          <mxGeometry x="2156" y="1128" width="65" height="65" as="geometry" />
        </mxCell>
        <mxCell id="C-qCxtMn5BfufGwFR7-I-19" value="&lt;b style=&quot;border-color: var(--border-color);&quot;&gt;Family Report Service&lt;/b&gt;" style="whiteSpace=wrap;html=1;aspect=fixed;fillColor=#a20025;strokeColor=#6F0000;fontColor=#ffffff;strokeWidth=4;" parent="1" vertex="1">
          <mxGeometry x="2360" y="1128" width="65" height="65" as="geometry" />
        </mxCell>
        <mxCell id="C-qCxtMn5BfufGwFR7-I-20" value="&lt;b style=&quot;border-color: var(--border-color);&quot;&gt;Family Service&lt;/b&gt;" style="whiteSpace=wrap;html=1;aspect=fixed;fillColor=#a20025;strokeColor=#6F0000;fontColor=#ffffff;strokeWidth=4;" parent="1" vertex="1">
          <mxGeometry x="2258" y="1128" width="65" height="65" as="geometry" />
        </mxCell>
        <mxCell id="C-qCxtMn5BfufGwFR7-I-23" value="" style="edgeStyle=orthogonalEdgeStyle;rounded=0;orthogonalLoop=1;jettySize=auto;html=1;exitX=1;exitY=0.25;exitDx=0;exitDy=0;fillColor=#a20025;strokeColor=#6F0000;strokeWidth=3;endArrow=classic;endFill=1;entryX=0;entryY=0.25;entryDx=0;entryDy=0;" parent="1" source="C-qCxtMn5BfufGwFR7-I-9" target="C-qCxtMn5BfufGwFR7-I-10" edge="1">
          <mxGeometry relative="1" as="geometry">
            <mxPoint x="2262.12" y="965" as="sourcePoint" />
            <mxPoint x="2364.5" y="965" as="targetPoint" />
            <Array as="points">
              <mxPoint x="2257.5" y="961" />
            </Array>
          </mxGeometry>
        </mxCell>
        <mxCell id="C-qCxtMn5BfufGwFR7-I-27" value="" style="edgeStyle=orthogonalEdgeStyle;rounded=0;orthogonalLoop=1;jettySize=auto;html=1;entryX=0;entryY=0.75;entryDx=0;entryDy=0;fillColor=#a20025;strokeColor=#6F0000;strokeWidth=3;endArrow=none;endFill=0;exitX=1;exitY=0.75;exitDx=0;exitDy=0;startArrow=classic;startFill=1;" parent="1" source="C-qCxtMn5BfufGwFR7-I-28" target="C-qCxtMn5BfufGwFR7-I-9" edge="1">
          <mxGeometry relative="1" as="geometry">
            <mxPoint x="2460.5" y="1006" as="sourcePoint" />
            <mxPoint x="2536.12" y="1005" as="targetPoint" />
            <Array as="points" />
          </mxGeometry>
        </mxCell>
        <mxCell id="C-qCxtMn5BfufGwFR7-I-51" style="edgeStyle=orthogonalEdgeStyle;rounded=0;orthogonalLoop=1;jettySize=auto;html=1;exitX=0.162;exitY=-0.008;exitDx=0;exitDy=0;startArrow=none;startFill=0;endArrow=classic;endFill=1;fillColor=#a20025;strokeColor=#6F0000;strokeWidth=3;entryX=1;entryY=0.75;entryDx=0;entryDy=0;exitPerimeter=0;" parent="1" source="C-qCxtMn5BfufGwFR7-I-28" target="C-qCxtMn5BfufGwFR7-I-30" edge="1">
          <mxGeometry relative="1" as="geometry">
            <mxPoint x="2007.5" y="797" as="targetPoint" />
            <Array as="points" />
          </mxGeometry>
        </mxCell>
        <mxCell id="C-qCxtMn5BfufGwFR7-I-28" value="&lt;b&gt;Command&lt;/b&gt;" style="whiteSpace=wrap;html=1;aspect=fixed;fillColor=#a20025;strokeColor=#6F0000;fontColor=#ffffff;strokeWidth=4;" parent="1" vertex="1">
          <mxGeometry x="1987" y="945" width="80" height="80" as="geometry" />
        </mxCell>
        <mxCell id="C-qCxtMn5BfufGwFR7-I-30" value="&lt;b&gt;Client&lt;/b&gt;" style="whiteSpace=wrap;html=1;aspect=fixed;fillColor=#a20025;strokeColor=#6F0000;fontColor=#ffffff;strokeWidth=4;" parent="1" vertex="1">
          <mxGeometry x="1895" y="794.94" width="80" height="80" as="geometry" />
        </mxCell>
        <mxCell id="C-qCxtMn5BfufGwFR7-I-31" value="&lt;b&gt;State Machine&lt;/b&gt;" style="whiteSpace=wrap;html=1;aspect=fixed;fillColor=#a20025;strokeColor=#6F0000;fontColor=#ffffff;strokeWidth=4;" parent="1" vertex="1">
          <mxGeometry x="2078.13" y="797.07" width="77.87" height="77.87" as="geometry" />
        </mxCell>
        <mxCell id="C-qCxtMn5BfufGwFR7-I-38" value="" style="edgeStyle=orthogonalEdgeStyle;rounded=0;orthogonalLoop=1;jettySize=auto;html=1;exitX=1;exitY=0.25;exitDx=0;exitDy=0;entryX=0;entryY=0.25;entryDx=0;entryDy=0;fillColor=#a20025;strokeColor=#6F0000;strokeWidth=3;endArrow=classic;endFill=1;" parent="1" source="C-qCxtMn5BfufGwFR7-I-28" target="C-qCxtMn5BfufGwFR7-I-9" edge="1">
          <mxGeometry relative="1" as="geometry">
            <mxPoint x="2067.37" y="965.5" as="sourcePoint" />
            <mxPoint x="2346.37" y="968.5" as="targetPoint" />
            <Array as="points" />
          </mxGeometry>
        </mxCell>
        <mxCell id="C-qCxtMn5BfufGwFR7-I-9" value="&lt;b&gt;Services&lt;/b&gt;" style="whiteSpace=wrap;html=1;aspect=fixed;fillColor=#a20025;strokeColor=#6F0000;fontColor=#ffffff;strokeWidth=4;" parent="1" vertex="1">
          <mxGeometry x="2177.37" y="945" width="80" height="80" as="geometry" />
        </mxCell>
        <mxCell id="C-qCxtMn5BfufGwFR7-I-52" style="edgeStyle=orthogonalEdgeStyle;rounded=0;orthogonalLoop=1;jettySize=auto;html=1;fillColor=#a20025;strokeColor=#6F0000;strokeWidth=3;startArrow=classic;startFill=1;endArrow=none;endFill=0;entryX=1;entryY=0.5;entryDx=0;entryDy=0;exitX=0.338;exitY=-0.022;exitDx=0;exitDy=0;exitPerimeter=0;" parent="1" source="C-qCxtMn5BfufGwFR7-I-28" target="C-qCxtMn5BfufGwFR7-I-30" edge="1">
          <mxGeometry relative="1" as="geometry">
            <mxPoint x="2047.5" y="826" as="targetPoint" />
            <Array as="points">
              <mxPoint x="2014" y="835" />
            </Array>
            <mxPoint x="2019" y="944" as="sourcePoint" />
          </mxGeometry>
        </mxCell>
        <mxCell id="C-qCxtMn5BfufGwFR7-I-54" value="" style="edgeStyle=orthogonalEdgeStyle;rounded=0;orthogonalLoop=1;jettySize=auto;html=1;fillColor=#a20025;strokeColor=#6F0000;strokeWidth=3;endArrow=none;endFill=0;startArrow=classic;startFill=1;entryX=-0.004;entryY=0.793;entryDx=0;entryDy=0;exitX=1;exitY=0.75;exitDx=0;exitDy=0;entryPerimeter=0;" parent="1" source="C-qCxtMn5BfufGwFR7-I-9" target="C-qCxtMn5BfufGwFR7-I-10" edge="1">
          <mxGeometry relative="1" as="geometry">
            <mxPoint x="2259.5" y="1006" as="sourcePoint" />
            <mxPoint x="2355.16912" y="1006.7080000000001" as="targetPoint" />
            <Array as="points">
              <mxPoint x="2312" y="1005" />
            </Array>
          </mxGeometry>
        </mxCell>
        <mxCell id="IvVyYjoDbJgsOqebTJ-h-7" style="edgeStyle=orthogonalEdgeStyle;rounded=0;orthogonalLoop=1;jettySize=auto;html=1;fillColor=#a20025;strokeColor=#6F0000;strokeWidth=3;entryX=0;entryY=0.75;entryDx=0;entryDy=0;exitX=0.815;exitY=-0.018;exitDx=0;exitDy=0;exitPerimeter=0;" parent="1" target="C-qCxtMn5BfufGwFR7-I-31" edge="1" source="C-qCxtMn5BfufGwFR7-I-28">
          <mxGeometry relative="1" as="geometry">
            <mxPoint x="2227" y="943" as="sourcePoint" />
            <mxPoint x="2217.5" y="761" as="targetPoint" />
            <Array as="points">
              <mxPoint x="2052" y="910" />
              <mxPoint x="2053" y="910" />
              <mxPoint x="2053" y="856" />
            </Array>
          </mxGeometry>
        </mxCell>
        <mxCell id="IvVyYjoDbJgsOqebTJ-h-8" style="edgeStyle=orthogonalEdgeStyle;rounded=0;orthogonalLoop=1;jettySize=auto;html=1;fillColor=#a20025;strokeColor=#6F0000;strokeWidth=3;startArrow=classic;startFill=1;endArrow=none;endFill=0;entryX=0;entryY=0.5;entryDx=0;entryDy=0;exitX=0.596;exitY=-0.022;exitDx=0;exitDy=0;exitPerimeter=0;" parent="1" source="C-qCxtMn5BfufGwFR7-I-28" target="C-qCxtMn5BfufGwFR7-I-31" edge="1">
          <mxGeometry relative="1" as="geometry">
            <mxPoint x="2237.5" y="761" as="targetPoint" />
            <mxPoint x="2035" y="941" as="sourcePoint" />
            <Array as="points">
              <mxPoint x="2035" y="835" />
              <mxPoint x="2078" y="835" />
            </Array>
          </mxGeometry>
        </mxCell>
      </root>
    </mxGraphModel>
  </diagram>
</mxfile>
